<?xml version="1.0" encoding="UTF-8"?>
<svg width="215px" height="430px" viewBox="0 0 215 430" version="1.1" xmlns="http://www.w3.org/2000/svg" xmlns:xlink="http://www.w3.org/1999/xlink">
    <!-- Generator: Sketch 52.4 (67378) - http://www.bohemiancoding.com/sketch -->
    <title>Artboard Copy 5</title>
    <desc>Created with Sketch.</desc>
    <g id="Artboard-Copy-5" stroke="none" stroke-width="1" fill="none" fill-rule="evenodd">
        <g id="Group">
            <path d="M3.57986073,147.85282 L3.57986073,76.6836961 L2.05478185,76.6836961 C1.20709305,76.6836961 0.52970297,77.3597624 0.52970297,78.199305 L0.52970297,146.337211 C0.52970297,147.175234 1.21099697,147.85282 2.05478185,147.85282 L3.57986073,147.85282 Z" id="Rectangle-4" stroke="#17BEF4" stroke-width="1.05940594"></path>
            <path d="M210.420139,140.276206 L210.420139,174.545972 L211.945218,174.545972 C212.792511,174.545972 213.470297,173.867249 213.470297,173.023524 L213.470297,141.798654 C213.470297,140.962918 212.784558,140.276206 211.945218,140.276206 L210.420139,140.276206 Z" id="Rectangle-4-Copy-2" stroke="#17BEF4" stroke-width="1.05940594"></path>
            <path d="M3.57986073,200.454032 L3.57986073,166.184265 L2.05478185,166.184265 C1.20748877,166.184265 0.52970297,166.862989 0.52970297,167.706714 L0.52970297,198.931583 C0.52970297,199.767319 1.21544201,200.454032 2.05478185,200.454032 L3.57986073,200.454032 Z" id="Rectangle-4-Copy" stroke="#17BEF4" stroke-width="1.05940594"></path>
            <path d="M96.3516744,429.470297 C96.7454999,428.981497 97.3448848,428.685204 97.9960801,428.685204 L116.787803,428.685204 C117.439493,428.685204 118.039474,428.981209 118.433232,429.470297 L187.300622,429.470297 C200.021331,429.470297 210.334766,419.159676 210.334766,406.441811 L210.334766,23.5581887 C210.334766,10.8410945 200.021436,0.52970297 187.300622,0.52970297 L26.6993777,0.52970297 C13.9786686,0.52970297 3.66523411,10.8403243 3.66523411,23.5581887 L3.66523411,406.441811 C3.66523411,419.158906 13.9785639,429.470297 26.6993777,429.470297 L52.0955421,429.470297 C53.305615,428.463048 54.8295842,427.900112 56.4395604,427.900112 C58.0495367,427.900112 59.5735058,428.463048 60.7835787,429.470297 L96.3516744,429.470297 Z" id="Combined-Shape" stroke="#17BEF4" stroke-width="1.05940594"></path>
            <path d="M8.23153866,40.8324805 L8.23153866,397.876571 C8.23153866,406.773403 15.437975,413.978467 24.3323364,413.978467 L189.667664,413.978467 C198.560984,413.978467 205.768461,406.769999 205.768461,397.876571 L205.768461,40.8324805 C205.768461,31.9356491 198.562025,24.7305849 189.667664,24.7305849 L24.3323364,24.7305849 C15.4390165,24.7305849 8.23153866,31.9390529 8.23153866,40.8324805 Z" id="Rectangle" stroke="#17BEF4" stroke-width="0.785421646"></path>
            <ellipse id="Oval" stroke="#17BEF4" cx="49.4871795" cy="14.495649" rx="4.98717949" ry="4.99564899"></ellipse>
            <ellipse id="Oval-Copy" stroke="#17BEF4" stroke-width="0.785421646" cx="65.0622711" cy="14.9167615" rx="3.13553114" ry="3.14037085"></ellipse>
            <ellipse id="Oval-Copy-2" stroke="#17BEF4" stroke-width="0.785421646" cx="74.4688645" cy="14.9167615" rx="3.13553114" ry="3.14037085"></ellipse>
            <ellipse id="Oval-Copy-3" stroke="#17BEF4" stroke-width="0.785421646" cx="35.2747253" cy="14.9167615" rx="3.13553114" ry="3.14037085"></ellipse>
            <ellipse id="Oval-Copy-4" stroke="#17BEF4" stroke-width="0.785421646" cx="164.615385" cy="14.9167615" rx="3.91941392" ry="3.92546357"></ellipse>
            <circle id="Oval-Copy-5" fill="#17BEF4" cx="49.5" cy="14.5" r="1.5"></circle>
            <ellipse id="Oval-Copy-7" stroke="#17BEF4" cx="146.487179" cy="14.495649" rx="4.98717949" ry="4.99564899"></ellipse>
            <circle id="Oval-Copy-6" fill="#17BEF4" cx="146.5" cy="14.5" r="1.5"></circle>
            <ellipse id="Oval-Copy-8" cx="146.586081" cy="14.9167615" rx="1" ry="1"></ellipse>
            <rect id="Rectangle-2" stroke="#17BEF4" stroke-width="0.785421646" x="92.8908793" y="12.1691015" width="29.0021241" height="5.49532006" rx="2.74766003"></rect>
        </g>
    </g>
</svg>