<?xml version="1.0" encoding="UTF-8" standalone="no"?>
<!-- Created with Keyshape -->
<svg xmlns="http://www.w3.org/2000/svg" xmlns:xlink="http://www.w3.org/1999/xlink" width="215px" height="521px" viewBox="0 0 215 521">
    <style>
@keyframes connector_t { 0% { transform: translate(93px,457px); animation-timing-function: cubic-bezier(0.42,0,0.58,1); } 50% { transform: translate(93px,441px); animation-timing-function: cubic-bezier(0.42,0,0.58,1); } 100% { transform: translate(92.999936px,457px); } }
    </style>
    <title>Artboard Copy 5</title>
    <desc>Created with Sketch.</desc>
    <g id="Artboard-Copy-5" stroke="none" stroke-width="1" fill="none" fill-rule="evenodd">
        <g id="Group">
            <path id="Rectangle-4" d="M3.57986,147.853L3.57986,76.6837L2.05478,76.6837C1.20709,76.6837,0.529703,77.3598,0.529703,78.1993L0.529703,146.337C0.529703,147.175,1.211,147.853,2.05478,147.853L3.57986,147.853Z" stroke="#17BEF4" stroke-width="1.05941"/>
            <path id="Rectangle-4-Copy-2" d="M210.42,140.276L210.42,174.546L211.945,174.546C212.793,174.546,213.47,173.867,213.47,173.024L213.47,141.799C213.47,140.963,212.785,140.276,211.945,140.276L210.42,140.276Z" stroke="#17BEF4" stroke-width="1.05941"/>
            <path id="Rectangle-4-Copy" d="M3.57986,200.454L3.57986,166.184L2.05478,166.184C1.20749,166.184,0.529703,166.863,0.529703,167.707L0.529703,198.932C0.529703,199.767,1.21544,200.454,2.05478,200.454L3.57986,200.454Z" stroke="#17BEF4" stroke-width="1.05941"/>
            <path id="Combined-Shape" d="M96.3517,429.47C96.7455,428.981,97.3449,428.685,97.9961,428.685L116.788,428.685C117.439,428.685,118.039,428.981,118.433,429.47L187.301,429.47C200.021,429.47,210.335,419.16,210.335,406.442L210.335,23.5582C210.335,10.8411,200.021,0.529703,187.301,0.529703L26.6994,0.529703C13.9787,0.529703,3.66523,10.8403,3.66523,23.5582L3.66523,406.442C3.66523,419.159,13.9786,429.47,26.6994,429.47L52.0955,429.47C53.3056,428.463,54.8296,427.9,56.4396,427.9C58.0495,427.9,59.5735,428.463,60.7836,429.47L96.3517,429.47Z" stroke="#17BEF4" stroke-width="1.05941"/>
            <path id="Rectangle" d="M8.23154,40.8325L8.23154,397.877C8.23154,406.773,15.438,413.978,24.3323,413.978L189.668,413.978C198.561,413.978,205.768,406.77,205.768,397.877L205.768,40.8325C205.768,31.9356,198.562,24.7306,189.668,24.7306L24.3323,24.7306C15.439,24.7306,8.23154,31.9391,8.23154,40.8325Z" stroke="#17BEF4" stroke-width="0.785422"/>
            <ellipse id="Oval" stroke="#17BEF4" rx="4.98718" ry="4.99565" transform="translate(0,0) translate(49.4872,14.4956)"/>
            <ellipse id="Oval-Copy" stroke="#17BEF4" stroke-width="0.785422" rx="3.13553" ry="3.14037" transform="translate(0,0) translate(65.0623,14.9168)"/>
            <ellipse id="Oval-Copy-2" stroke="#17BEF4" stroke-width="0.785422" rx="3.13553" ry="3.14037" transform="translate(0,0) translate(74.4689,14.9168)"/>
            <ellipse id="Oval-Copy-3" stroke="#17BEF4" stroke-width="0.785422" rx="3.13553" ry="3.14037" transform="translate(0,0) translate(35.2747,14.9168)"/>
            <ellipse id="Oval-Copy-4" stroke="#17BEF4" stroke-width="0.785422" rx="3.91941" ry="3.92546" transform="translate(0,0) translate(164.615,14.9168)"/>
            <ellipse id="Oval-Copy-5" fill="#17BEF4" rx="1.5" ry="1.5" transform="translate(0,0) translate(49.5,14.5)"/>
            <ellipse id="Oval-Copy-7" stroke="#17BEF4" rx="4.98718" ry="4.99565" transform="translate(0,0) translate(146.487,14.4956)"/>
            <ellipse id="Oval-Copy-6" fill="#17BEF4" rx="1.5" ry="1.5" transform="translate(0,0) translate(146.5,14.5)"/>
            <ellipse id="Oval-Copy-8" rx="1" ry="1" transform="translate(0,0) translate(146.586,14.9168)"/>
            <rect id="Rectangle-2" stroke="#17BEF4" stroke-width="0.785422" width="29.0021" height="5.49532" rx="2.74766" transform="translate(0,0) translate(92.8909,12.1691)"/>
        </g>
        <g id="connector" transform="translate(108,457) translate(-15.0001,0)" style="animation: 2s linear infinite both connector_t;">
            <path id="Path" d="M15,1.33337L23.1356,1.33337C23.8844,1.33337,24.4916,1.93037,24.4916,2.66675L24.4916,18.6668L5.50843,18.6668L5.50843,2.66675C5.50843,1.93037,6.11555,1.33337,6.86441,1.33337L15,1.33337Z"/>
            <g id="Group-2" fill="#17BEF4" fill-rule="nonzero">
                <path id="Combined-Shape-2" d="M28.5594,17.3334C29.3082,17.3334,29.9152,17.9303,29.9153,18.6666L29.9153,37.3332C30.0268,39.8017,28.3058,41.987,25.8475,42.4986L25.8475,48C24.8053,48,25.3663,48,21.7797,48L20.4238,48L20.4238,54.6666C19.9264,54.6668,19.8167,54.6666,19.0678,54.6666L15.9497,54.6668L15.9497,64.0001L14.6574,64L14.6574,54.6668L10.9323,54.6668C10.1835,54.6668,10.2549,54.6668,9.57636,54.6668L9.57636,48L8.22038,48C4.15258,48,5.29645,48,4.15258,48L4.15258,42.4986C1.69436,41.987,-0.0266949,39.8016,0.0847881,37.3332L0.0847881,18.6666C0.0847881,17.9303,0.691907,17.3333,1.44076,17.3333L4.15258,17.3333L4.15258,2.66662C4.15258,1.19388,5.36669,0,6.86441,0L23.1356,0C24.6333,0,25.8474,1.19388,25.8475,2.66662L25.8475,17.3334L28.5594,17.3334ZM7.2589,1.16094C6.15433,1.16094,5.2589,2.05637,5.2589,3.16094L5.2589,17.3333L24.8222,17.3333L24.8222,3.16094C24.8222,2.05637,23.9268,1.16094,22.8222,1.16094L15.4795,1.16094L15.4794,5.14541C15.4794,5.88179,14.8723,6.47879,14.1234,6.47879L11.1884,6.47879C11.1869,6.47879,11.1854,6.47879,11.184,6.47881C10.9078,6.48127,10.686,6.70711,10.6884,6.98324L10.7197,10.4958C10.7222,10.7701,10.9453,10.9913,11.2197,10.9913L13.4024,10.9913C14.1513,10.9913,14.6993,11.584,14.6993,12.3204L14.6591,14.6623L13.644,14.6666L13.644,12L10.9322,12C10.1833,12,9.57623,11.403,9.57623,10.6666L9.57623,6.66662C9.57623,5.93025,10.1833,5.33325,10.9322,5.33325L14.5686,5.33325L14.5686,1.16094L7.2589,1.16094ZM19.3498,53.6115L19.3498,48L10.6823,48L10.6823,53.6115L19.3498,53.6115ZM28.8671,37.3332L28.8671,18.9079C28.8671,18.6318,28.6432,18.4079,28.3671,18.4079L1.66187,18.4081C1.38572,18.4081,1.16187,18.6319,1.16187,18.9081L1.16187,37.3332C1.15475,37.4416,1.15475,37.5502,1.16187,37.6585C1.25314,39.0415,2.46725,40.0898,3.87369,40C4.62254,40,5.22966,40.597,5.22966,41.3334L5.22966,46.9798C5.22966,46.9798,24.7991,46.98,24.7991,46.9798L24.7991,41.3332C24.7991,40.5969,25.4063,39.9999,26.1551,39.9999C26.2653,40.0069,26.3758,40.0069,26.4859,39.9999C27.8923,39.9101,28.9583,38.7163,28.8671,37.3332ZM5.50843,28.3334L24.4914,28.3334L24.4914,29.3334L5.50843,29.3334L5.50843,28.3334ZM10,32L19,32L19,33L10,33L10,32Z"/>
            </g>
        </g>
    </g>
</svg>
