<?xml version="1.0" encoding="UTF-8"?>
<svg width="215px" height="521px" viewBox="0 0 215 521" version="1.1" xmlns="http://www.w3.org/2000/svg" xmlns:xlink="http://www.w3.org/1999/xlink">
    <!-- Generator: Sketch 52.4 (67378) - http://www.bohemiancoding.com/sketch -->
    <title>Artboard Copy 5</title>
    <desc>Created with Sketch.</desc>
    <g id="Artboard-Copy-5" stroke="none" stroke-width="1" fill="none" fill-rule="evenodd">
        <g id="Group">
            <path d="M3.57986073,147.85282 L3.57986073,76.6836961 L2.05478185,76.6836961 C1.20709305,76.6836961 0.52970297,77.3597624 0.52970297,78.199305 L0.52970297,146.337211 C0.52970297,147.175234 1.21099697,147.85282 2.05478185,147.85282 L3.57986073,147.85282 Z" id="Rectangle-4" stroke="#17BEF4" stroke-width="1.05940594"></path>
            <path d="M210.420139,140.276206 L210.420139,174.545972 L211.945218,174.545972 C212.792511,174.545972 213.470297,173.867249 213.470297,173.023524 L213.470297,141.798654 C213.470297,140.962918 212.784558,140.276206 211.945218,140.276206 L210.420139,140.276206 Z" id="Rectangle-4-Copy-2" stroke="#17BEF4" stroke-width="1.05940594"></path>
            <path d="M3.57986073,200.454032 L3.57986073,166.184265 L2.05478185,166.184265 C1.20748877,166.184265 0.52970297,166.862989 0.52970297,167.706714 L0.52970297,198.931583 C0.52970297,199.767319 1.21544201,200.454032 2.05478185,200.454032 L3.57986073,200.454032 Z" id="Rectangle-4-Copy" stroke="#17BEF4" stroke-width="1.05940594"></path>
            <path d="M96.3516744,429.470297 C96.7454999,428.981497 97.3448848,428.685204 97.9960801,428.685204 L116.787803,428.685204 C117.439493,428.685204 118.039474,428.981209 118.433232,429.470297 L187.300622,429.470297 C200.021331,429.470297 210.334766,419.159676 210.334766,406.441811 L210.334766,23.5581887 C210.334766,10.8410945 200.021436,0.52970297 187.300622,0.52970297 L26.6993777,0.52970297 C13.9786686,0.52970297 3.66523411,10.8403243 3.66523411,23.5581887 L3.66523411,406.441811 C3.66523411,419.158906 13.9785639,429.470297 26.6993777,429.470297 L52.0955421,429.470297 C53.305615,428.463048 54.8295842,427.900112 56.4395604,427.900112 C58.0495367,427.900112 59.5735058,428.463048 60.7835787,429.470297 L96.3516744,429.470297 Z" id="Combined-Shape" stroke="#17BEF4" stroke-width="1.05940594"></path>
            <path d="M8.23153866,40.8324805 L8.23153866,397.876571 C8.23153866,406.773403 15.437975,413.978467 24.3323364,413.978467 L189.667664,413.978467 C198.560984,413.978467 205.768461,406.769999 205.768461,397.876571 L205.768461,40.8324805 C205.768461,31.9356491 198.562025,24.7305849 189.667664,24.7305849 L24.3323364,24.7305849 C15.4390165,24.7305849 8.23153866,31.9390529 8.23153866,40.8324805 Z" id="Rectangle" stroke="#17BEF4" stroke-width="0.785421646"></path>
            <ellipse id="Oval" stroke="#17BEF4" cx="49.4871795" cy="14.495649" rx="4.98717949" ry="4.99564899"></ellipse>
            <ellipse id="Oval-Copy" stroke="#17BEF4" stroke-width="0.785421646" cx="65.0622711" cy="14.9167615" rx="3.13553114" ry="3.14037085"></ellipse>
            <ellipse id="Oval-Copy-2" stroke="#17BEF4" stroke-width="0.785421646" cx="74.4688645" cy="14.9167615" rx="3.13553114" ry="3.14037085"></ellipse>
            <ellipse id="Oval-Copy-3" stroke="#17BEF4" stroke-width="0.785421646" cx="35.2747253" cy="14.9167615" rx="3.13553114" ry="3.14037085"></ellipse>
            <ellipse id="Oval-Copy-4" stroke="#17BEF4" stroke-width="0.785421646" cx="164.615385" cy="14.9167615" rx="3.91941392" ry="3.92546357"></ellipse>
            <circle id="Oval-Copy-5" fill="#17BEF4" cx="49.5" cy="14.5" r="1.5"></circle>
            <ellipse id="Oval-Copy-7" stroke="#17BEF4" cx="146.487179" cy="14.495649" rx="4.98717949" ry="4.99564899"></ellipse>
            <circle id="Oval-Copy-6" fill="#17BEF4" cx="146.5" cy="14.5" r="1.5"></circle>
            <ellipse id="Oval-Copy-8" cx="146.586081" cy="14.9167615" rx="1" ry="1"></ellipse>
            <rect id="Rectangle-2" stroke="#17BEF4" stroke-width="0.785421646" x="92.8908793" y="12.1691015" width="29.0021241" height="5.49532006" rx="2.74766003"></rect>
        </g>
        <g id="connector" transform="translate(93.000000, 454.000000)">
            <path d="M15,1.333375 L23.1355932,1.333375 C23.8844492,1.333375 24.4915678,1.930375 24.4915678,2.66675 L24.4915678,18.66675 L5.5084322,18.66675 L5.5084322,2.66675 C5.5084322,1.930375 6.11555085,1.333375 6.86440678,1.333375 L15,1.333375 Z" id="Path" fill="#FFFFFF"></path>
            <g id="Group" fill="#17BEF4" fill-rule="nonzero">
                <path d="M28.5593644,17.333375 C29.3082203,17.333375 29.9152119,17.93025 29.915339,18.666625 L29.915339,37.33325 C30.026822,39.80175 28.3057627,41.987 25.8475424,42.498625 L25.8475424,48 C24.8052659,48 25.3663004,48 21.7797458,48 L20.4237712,48 L20.4237712,54.666625 C19.9263691,54.66675 19.8166525,54.666625 19.0677966,54.666625 L15.949667,54.66675 L15.949667,64.000125 L14.6573807,64 L14.6573807,54.66675 L10.9323305,54.66675 C10.1834746,54.66675 10.2549489,54.66675 9.57635593,54.66675 L9.57635593,48 L8.22038136,48 C4.15258475,48 5.29644748,48 4.15258475,48 L4.15258475,42.498625 C1.69436441,41.987 -0.0266949153,39.801625 0.0847881356,37.33325 L0.0847881356,18.666625 C0.0847881356,17.93025 0.69190678,17.33325 1.44076271,17.33325 L4.15258475,17.33325 L4.15258475,2.666625 C4.15258475,1.193875 5.36669492,2.27373675e-13 6.86440678,2.27373675e-13 L23.1355932,2.27373675e-13 C24.6333051,2.27373675e-13 25.8474153,1.193875 25.8475424,2.666625 L25.8475424,17.333375 L28.5593644,17.333375 Z M7.25889887,1.16094084 C6.15432937,1.16094084 5.25889887,2.05637134 5.25889887,3.16094084 L5.25889887,17.33325 L24.8222034,17.33325 L24.8222034,3.16094084 C24.8222034,2.05637134 23.9267729,1.16094084 22.8222034,1.16094084 L15.4794573,1.16094084 L15.4793938,5.14541199 C15.4793938,5.88178699 14.8722751,6.47878699 14.1234192,6.47878699 L11.1884075,6.47878699 C11.1869231,6.47878699 11.1854387,6.4787936 11.1839544,6.47880682 C10.907823,6.48126618 10.685968,6.70710863 10.6884273,6.98324005 L10.7197115,10.4957511 C10.7221554,10.7701451 10.9452867,10.991298 11.2196916,10.991298 L13.4024306,10.991298 C14.1512865,10.991298 14.6992713,11.5840025 14.6992713,12.3203775 L14.6591442,14.6623296 L13.6440254,14.666625 L13.6440254,12 L10.9322034,12 C10.1833475,12 9.57622881,11.403 9.57622881,10.666625 L9.57622881,6.666625 C9.57622881,5.93025 10.1833475,5.33325 10.9322034,5.33325 L14.5685752,5.33325 L14.5685752,1.16094084 L7.25889887,1.16094084 Z M19.3497936,53.6114913 L19.3497936,48 L10.6822769,48 L10.6822769,53.6114913 L19.3497936,53.6114913 Z M28.8670705,37.33325 L28.8670728,18.9079294 C28.8670715,18.6317871 28.6432129,18.4079304 28.3670705,18.4079317 L1.66186596,18.4080567 C1.38572446,18.4080579 1.16186821,18.6319152 1.16186821,18.9080567 L1.16186596,37.33325 C1.15474731,37.441625 1.15474731,37.55025 1.16186596,37.6585 C1.25313714,39.0415 2.46724731,40.08975 3.87368799,40 C4.62254392,40 5.22966257,40.597 5.22966257,41.333375 L5.22966257,46.9798323 C5.22966257,46.9798323 24.7991468,46.9799573 24.7991468,46.9798323 L24.7991468,41.33325 C24.7991468,40.596875 25.4062654,39.999875 26.1551214,39.999875 C26.2653332,40.006875 26.3757993,40.006875 26.4858841,39.999875 C27.8923248,39.910125 28.9583417,38.71625 28.8670705,37.33325 Z M5.5084322,28.333375 L24.4914407,28.333375 L24.4914407,29.333375 L5.5084322,29.333375 L5.5084322,28.333375 Z M10,32 L19,32 L19,33 L10,33 L10,32 Z" id="Combined-Shape"></path>
            </g>
        </g>
    </g>
</svg>