<?xml version="1.0" encoding="UTF-8"?>
<svg width="214px" height="430px" viewBox="0 0 214 430" version="1.1" xmlns="http://www.w3.org/2000/svg" xmlns:xlink="http://www.w3.org/1999/xlink">
    <!-- Generator: Sketch 52.4 (67378) - http://www.bohemiancoding.com/sketch -->
    <title>Artboard Copy 4</title>
    <desc>Created with Sketch.</desc>
    <g id="Artboard-Copy-4" stroke="none" stroke-width="1" fill="none" fill-rule="evenodd">
        <g id="iPhone-(X)">
            <path d="M33.3477042,0.523330354 C15.9507346,0.523330354 1.84770419,14.6263607 1.84770419,32.0233304 L1.84770419,397.982004 C1.84770419,415.378973 15.9507346,429.482004 33.3477042,429.482004 L180.152296,429.482004 C197.549265,429.482004 211.652296,415.378973 211.652296,397.982004 L211.652296,32.0233304 C211.652296,14.6263607 197.549265,0.523330354 180.152296,0.523330354 L33.3477042,0.523330354 Z" id="Screen-base" stroke="#00C1FF"></path>
            <path d="M34.5,416.071514 C20.0064583,416.071306 13,408.101786 13,394.670706 L13,33.8431375 C13,16.4300967 24.5066667,11.9446368 36,11.9446368 L52.1283333,11.9487842 C53.406875,12.0130696 54.4320833,13.0333406 54.5,14.3086794 C54.5,22.0249977 58.8727083,26.8754327 66,26.8754327 L147.5,26.8754327 C154.6275,26.8754327 159,22.0249977 159,14.3086794 C159.067917,13.0333406 160.093125,12.0130696 161.371875,11.9487842 L177.5,11.9446368 C188.993333,11.9446368 200.5,16.4300967 200.5,33.8431375 L200.5,394.670706 C200.5,408.101786 193.493333,416.071514 179,416.071514 L34.5,416.071514 Z M17.4698764,34.0754264 L17.4698764,399.889048 L196,399.889048 L196,34.0754264 L17.4698764,34.0754264 Z" id="Combined-Shape"></path>
            <path d="M1,127.794321 L1.34770419,127.794321 L1.34770419,159.291295 L1,159.291295 C0.44771525,159.291295 6.76353751e-17,158.84358 0,158.291295 L-2.22044605e-16,128.794321 C-2.8967998e-16,128.242037 0.44771525,127.794321 1,127.794321 Z" id="button-4" fill="#17BEF4"></path>
            <path d="M1,88.3947327 L1.34770419,88.3947327 L1.34770419,119.891706 L1,119.891706 C0.44771525,119.891706 6.76353751e-17,119.443991 0,118.891706 L-2.22044605e-16,89.3947327 C-2.8967998e-16,88.842448 0.44771525,88.3947327 1,88.3947327 Z" id="button-3" fill="#17BEF4"></path>
            <path d="M1,57.5746682 L1.34770419,57.5746682 L1.34770419,74.1711296 L1,74.1711296 C0.44771525,74.1711296 6.76353751e-17,73.7234143 0,73.1711296 L-1.11022302e-16,58.5746682 C-1.78657678e-16,58.0223835 0.44771525,57.5746682 1,57.5746682 Z" id="button-2" fill="#17BEF4"></path>
            <path d="M212.152296,98.893724 L212.5,98.893724 C213.052285,98.893724 213.5,99.3414392 213.5,99.893724 L213.5,148.01794 C213.5,148.570225 213.052285,149.01794 212.5,149.01794 L212.152296,149.01794 L212.152296,98.893724 Z" id="button-1" fill="#17BEF4"></path>
            <rect id="Home-Indicator" fill="#17BEF4" x="73.5" y="408.002309" width="67" height="2.5" rx="1.25"></rect>
            <path d="M179,416.5 L34.5,416.5 C20.0914894,416.5 12.5,408.680913 12.5,394.605911 L12.5,33.8916256 C12.5,18.3297692 21.4352234,11.5 36.0001285,11.5 L52.1532215,11.5047764 C53.6874672,11.5818818 54.9177312,12.805635 55,14.3633005 C55,21.8370482 59.1833809,26.4261084 66,26.4261084 L147.5,26.4261084 C154.316488,26.4261084 158.5,21.8369641 158.500708,14.3367029 C158.582267,12.8056753 159.812492,11.581886 161.371538,11.5041462 L177.5,11.5 C192.064777,11.5 201,18.3297692 201,33.8916256 L201,394.605911 C201,408.680915 193.408714,416.499794 179.000007,416.5 Z" id="Combined-Shape" stroke="#17BEF4"></path>
            <circle id="Oval" stroke="#17BEF4" cx="143" cy="13" r="4"></circle>
            <rect id="Rectangle" stroke="#17BEF4" x="91.5" y="11.5" width="20" height="3" rx="1.5"></rect>
        </g>
    </g>
</svg>