<?xml version="1.0" encoding="UTF-8"?>
<svg width="173px" height="41px" viewBox="0 0 173 41" version="1.1" xmlns="http://www.w3.org/2000/svg" xmlns:xlink="http://www.w3.org/1999/xlink">
    <!-- Generator: Sketch 52.4 (67378) - http://www.bohemiancoding.com/sketch -->
    <title>C5 Copy</title>
    <desc>Created with Sketch.</desc>
    <g id="Page-1" stroke="none" stroke-width="1" fill="none" fill-rule="evenodd">
        <g id="C5-Copy" fill="#FFFFFF">
            <g id="Group">
                <g id="eraser-(4)" transform="translate(164.920972, 27.180473) rotate(-166.000000) translate(-164.920972, -27.180473) translate(157.920972, 19.180473)">
                    <path d="M6.5357191,14.3037179 C6.27243339,14.6468058 5.85869871,14.8432708 5.39963646,14.8432708 C5.03074715,14.8432708 4.66041122,14.7145524 4.35613781,14.4803428 L0.581893845,11.5682087 C0.500400651,11.5048172 0.426140581,11.435619 0.357667009,11.3610978 C0.470021531,11.7409624 0.6961772,12.0840503 1.02263218,12.3356804 L4.37446172,14.9206955 C4.71152529,15.1805519 5.12381334,15.3233036 5.53513698,15.3233036 C6.06604826,15.3233036 6.5477743,15.0915136 6.85638758,14.6884216 L13.3092984,6.26026585 C13.5711374,5.91911354 13.6415399,5.42746709 13.6449153,5.01808432 L6.5357191,14.3037179 Z" id="Path"></path>
                    <path d="M0.663869248,11.4617498 L4.43859542,14.3743679 C4.71924062,14.590189 5.06016185,14.7092294 5.39963646,14.7092294 C5.8167466,14.7092294 6.19238682,14.5321206 6.42963328,14.2214542 L13.6400932,4.80323095 C13.6386466,4.76742206 13.6372,4.73064536 13.6343067,4.69725598 C13.6005522,4.25593555 13.4076689,3.42797583 12.8376987,2.9876232 L9.48586916,0.402608115 C9.1492878,0.143235579 8.73699975,-1.13686838e-13 8.32567612,-1.13686838e-13 C7.8569697,-1.13686838e-13 7.52617484,0.169366395 7.30725229,0.337281077 L0.29690877,9.49274447 C0.294015521,9.4961318 0.292568896,9.50048693 0.289675646,9.50387426 C0.163337085,9.79712008 0.105954303,10.1474666 0.195162829,10.5718504 C0.248205737,10.8641284 0.262671984,10.941553 0.28051369,11.0426889 C0.381295214,11.2004416 0.5090804,11.3422255 0.663869248,11.4617498 Z M7.11967328,1.20975996 C7.42876877,0.806184039 7.91049481,0.57439403 8.44044168,0.57439403 C8.85224752,0.57439403 9.26405337,0.717629609 9.60015252,0.977002145 L12.3858696,3.01423792 C12.9563219,3.45410664 13.1106286,3.78654868 13.1439009,4.22786912 C13.1574028,4.48288652 13.0836249,4.70693406 13.0030961,4.8700097 L13.0064716,4.87242922 L12.9891121,4.90001175 C12.9543931,4.9672744 12.9206385,5.01808432 12.8921882,5.05776445 L12.6858031,5.38923868 L12.6477087,5.43956469 C12.7079847,5.3553654 12.7581343,5.26487535 12.799122,5.16712675 C12.785138,5.19374147 12.771154,5.21987228 12.7518656,5.24503529 L12.6452976,5.44198421 L10.22413,8.61349093 L9.87645784,8.34637593 L9.86970693,8.3550862 L5.49366707,4.98082372 L4.73949337,4.40304236 L7.11967328,1.20975996 Z" id="Shape" fill-rule="nonzero"></path>
                </g>
                <g id="Group-10" transform="translate(0.000000, 0.277875)">
                    <rect id="Rectangle" x="0.639999971" y="0.138198608" width="41.5999981" height="6.39999971" rx="3.19999986"></rect>
                    <rect id="Rectangle-Copy-4" x="0" y="16.9599992" width="21.439999" height="6.39999971" rx="3.19999986"></rect>
                    <rect id="Rectangle-Copy-5" x="0" y="33.7817999" width="41.5999981" height="6.39999971" rx="3.19999986"></rect>
                    <path d="M34.5599985,40.1821232 L34.5599985,33.8021232 L153.119993,34.0791301 L159.359993,40.1821232 L34.5599985,40.1821232 Z M151.999993,38.5871232 L151.999993,39.5441232 L152.959993,39.5441232 L152.959993,38.5871232 L151.999993,38.5871232 Z M152.319993,36.0351232 L152.319993,37.6301232 L153.919993,37.6301232 L153.919993,36.0351232 L152.319993,36.0351232 Z M149.439993,34.7591232 L149.439993,36.0351232 L150.719993,36.0351232 L150.719993,34.7591232 L149.439993,34.7591232 Z" id="Combined-Shape"></path>
                    <g id="Group-14" transform="translate(156.159993, 33.919998)">
                        <rect id="Rectangle" x="0" y="0.78545451" width="1.34918913" height="1.33818176"></rect>
                        <rect id="Rectangle" x="3.19999986" y="4.79999979" width="1" height="1"></rect>
                        <rect id="Rectangle-Copy-11" x="4.79999979" y="3.83999983" width="1.12432427" height="1.11515147"></rect>
                        <rect id="Rectangle-Copy-15" x="5.11999977" y="0.319999986" width="1" height="1"></rect>
                        <rect id="Rectangle-Copy-16" x="4.79999979" y="2.2399999" width="1" height="1"></rect>
                        <rect id="Rectangle-Copy-17" x="2.87999987" y="0.116363631" width="1" height="1"></rect>
                        <rect id="Rectangle-Copy-12" x="6.22702675" y="2.55999989" width="1" height="1"></rect>
                        <rect id="Rectangle-Copy-13" x="1.59999993" y="0" width="1" height="1"></rect>
                        <rect id="Rectangle-Copy-14" x="1.27999994" y="2.87999987" width="1" height="1"></rect>
                        <rect id="Rectangle-Copy-10" x="2.24864855" y="1.90060598" width="1.79891884" height="1.78424234"></rect>
                    </g>
                </g>
            </g>
            <path d="M39.6899982,24.6150002 L31.3199986,24.6150002 L30.2999986,30.4649999 L40.1399982,30.4649999 L39.5099982,34.0799997 L25.2749989,34.0799997 L29.0699987,12.2400007 L43.2749981,12.2400007 L42.6299981,15.8850005 L32.8349985,15.8850005 L31.9199986,21.0900003 L40.3199982,21.0900003 L39.6899982,24.6150002 Z M51.5399977,26.0850001 L47.9699979,26.0850001 L46.5749979,34.0799997 L42.1799981,34.0799997 L45.9749979,12.2400007 L53.2049976,12.2550007 C55.6250096,12.2550007 57.4874909,12.824995 58.7924974,13.9650006 C60.0975038,15.1050063 60.674998,16.6899904 60.5249973,18.7200004 C60.3149963,21.7200153 58.7150123,23.8049943 55.7249975,24.9750001 L58.7999974,33.8399997 L58.7999974,34.0799997 L54.1199976,34.0799997 L51.5399977,26.0850001 Z M48.5999978,22.4400002 L51.8699977,22.4700002 C53.0300034,22.4500001 53.9874938,22.1375033 54.7424976,21.5325003 C55.4975013,20.9274973 55.9499967,20.1050056 56.0999975,19.0650004 C56.2399982,18.0949956 56.0849997,17.3350032 55.6349975,16.7850005 C55.1849953,16.2349978 54.4700025,15.9400007 53.4899976,15.9000005 L49.7399978,15.8850005 L48.5999978,22.4400002 Z M74.1899967,29.5799999 L66.569997,29.5799999 L64.3199971,34.0799997 L59.4749973,34.0799997 L71.1449968,12.2400007 L75.2099966,12.2400007 L79.3649965,34.0799997 L74.8799967,34.0799997 L74.1899967,29.5799999 Z M68.3699969,25.9350001 L73.6349967,25.9350001 L72.4049968,17.8050005 L68.3699969,25.9350001 Z M93.5699958,28.245 C93.7799969,27.0549941 93.1950027,26.1450032 91.8149959,25.5150001 L88.919996,24.3600002 C85.5599794,22.8599927 83.9649954,20.7950135 84.1349962,18.1650004 C84.2049966,16.9449944 84.6049926,15.8650052 85.3349962,14.9250006 C86.0649998,13.9849959 87.0899895,13.2475033 88.409996,12.7125007 C89.7300026,12.177498 91.1549883,11.9200006 92.6849959,11.9400007 C94.7950063,11.9800009 96.4999892,12.6074946 97.7999956,13.8225006 C99.1000021,15.0375067 99.7399956,16.6649903 99.7199955,18.7050004 L95.3399957,18.7050004 C95.389996,17.7149955 95.1724982,16.9450032 94.6874958,16.3950005 C94.2024934,15.8449978 93.4500009,15.5600007 92.4299959,15.5400006 C91.4299909,15.5200005 90.5599997,15.7474982 89.819996,16.2225005 C89.0799923,16.6975029 88.6399967,17.3499963 88.499996,18.1800004 C88.3099951,19.2700058 89.0399878,20.1349972 90.6899959,20.7750003 L92.6699959,21.5250003 L93.8099958,22.0500003 C96.7600104,23.5100075 98.1399966,25.5599869 97.9499956,28.2 C97.8599952,29.4900064 97.4474993,30.6024952 96.7124957,31.5374998 C95.977492,32.4725045 94.9775021,33.1899973 93.7124958,33.6899997 C92.4474895,34.1900022 91.0550035,34.4249999 89.534996,34.3949997 C87.9849883,34.3649996 86.6050022,34.0400028 85.3949962,33.4199998 C84.1849902,32.7999967 83.2649994,31.9250055 82.6349963,30.7949999 C82.0449934,29.7449947 81.7699961,28.5450067 81.8099963,27.195 L86.2049961,27.21 C86.0649955,29.5800118 87.2299838,30.7849997 89.699996,30.8249999 C90.7700013,30.8249999 91.6499925,30.5900022 92.3399959,30.1199999 C93.0299993,29.6499976 93.4399952,29.0250039 93.5699958,28.245 Z M119.939995,12.2400007 L117.479995,26.6400001 C117.139993,29.050012 116.140003,30.9549929 114.479995,32.3549998 C112.819987,33.7550067 110.760007,34.4349999 108.299995,34.3949997 C106.759988,34.3649996 105.422501,34.027503 104.287495,33.3824998 C103.15249,32.7374966 102.314998,31.8275057 101.774995,30.6524999 C101.234993,29.4774941 101.049995,28.1450074 101.219995,26.6550001 L103.664995,12.2400007 L108.059995,12.2400007 L105.614995,26.6700001 C105.544995,27.2300028 105.539995,27.7549976 105.599995,28.245 C105.799996,29.865008 106.764987,30.7049996 108.494995,30.7649999 C109.735001,30.8050001 110.749991,30.4650035 111.539995,29.7449999 C112.329999,29.0249964 112.839994,27.9950067 113.069995,26.6550001 L115.529995,12.2400007 L119.939995,12.2400007 Z M129.149994,26.0850001 L125.579994,26.0850001 L124.184994,34.0799997 L119.789995,34.0799997 L123.584994,12.2400007 L130.814994,12.2550007 C133.235006,12.2550007 135.097487,12.824995 136.402494,13.9650006 C137.7075,15.1050063 138.284995,16.6899904 138.134994,18.7200004 C137.924993,21.7200153 136.325009,23.8049943 133.334994,24.9750001 L136.409994,33.8399997 L136.409994,34.0799997 L131.729994,34.0799997 L129.149994,26.0850001 Z M126.209994,22.4400002 L129.479994,22.4700002 C130.64,22.4500001 131.59749,22.1375033 132.352494,21.5325003 C133.107498,20.9274973 133.559993,20.1050056 133.709994,19.0650004 C133.849995,18.0949956 133.694996,17.3350032 133.244994,16.7850005 C132.794992,16.2349978 132.079999,15.9400007 131.099994,15.9000005 L127.349994,15.8850005 L126.209994,22.4400002 Z M153.374993,24.6150002 L145.004994,24.6150002 L143.984994,30.4649999 L153.824993,30.4649999 L153.194993,34.0799997 L138.959994,34.0799997 L142.754994,12.2400007 L156.959993,12.2400007 L156.314993,15.8850005 L146.519993,15.8850005 L145.604993,21.0900003 L154.004993,21.0900003 L153.374993,24.6150002 Z" id="erasure"></path>
        </g>
    </g>
</svg>